PathFileType	4	(X/Y/Z)	/Users/itak/Documents/Research/Walk-IL/dataset/trc/00227_00009.trc
DataRate	CameraRate	NumFrames	NumMarkers	Units	OrigDataRate	OrigDataStartFrame	OrigNumFrames
100.000000	100.000000	4	53	mm	100.000000	322	861
Frame#	Time	RPSI			LPSI			L3			STRN			T10			C7			CLAV			RBAK			LBAK			LSHO			LUPA			LAEL			LAOL			LWTS			LWPS			LFRA			LIFD			LHPS			LHTS			RSHO			RUPA			RAEL			RAOL			RWTS			RWPS			RFRA			RIFD			RHTS			RHPS			RBHD			LFHD			RFHD			LBHD			LHIP			RHIP			RASI			LASI			LKNE			LTHI			LANK			LTIP			LTOE			LMT1			LMT5			LHEE			RKNE			RTHI			RANK			RTIP			RTOE			RMT1			RMT5			RHEE			
		X1	Y1	Z1	X2	Y2	Z2	X3	Y3	Z3	X4	Y4	Z4	X5	Y5	Z5	X6	Y6	Z6	X7	Y7	Z7	X8	Y8	Z8	X9	Y9	Z9	X10	Y10	Z10	X11	Y11	Z11	X12	Y12	Z12	X13	Y13	Z13	X14	Y14	Z14	X15	Y15	Z15	X16	Y16	Z16	X17	Y17	Z17	X18	Y18	Z18	X19	Y19	Z19	X20	Y20	Z20	X21	Y21	Z21	X22	Y22	Z22	X23	Y23	Z23	X24	Y24	Z24	X25	Y25	Z25	X26	Y26	Z26	X27	Y27	Z27	X28	Y28	Z28	X29	Y29	Z29	X30	Y30	Z30	X31	Y31	Z31	X32	Y32	Z32	X33	Y33	Z33	X34	Y34	Z34	X35	Y35	Z35	X36	Y36	Z36	X37	Y37	Z37	X38	Y38	Z38	X39	Y39	Z39	X40	Y40	Z40	X41	Y41	Z41	X42	Y42	Z42	X43	Y43	Z43	X44	Y44	Z44	X45	Y45	Z45	X46	Y46	Z46	X47	Y47	Z47	X48	Y48	Z48	X49	Y49	Z49	X50	Y50	Z50	X51	Y51	Z51	X52	Y52	Z52	X53	Y53	Z53	

323	3.22	793.9771118164062	1013.582458496094	238.6256408691406	674.2486572265625	1022.890930175781	252.3893737792969	716.9979858398438	1107.267456054688	250.9443359375	672.9757080078125	1274.736572265625	-4.176100730895996	721.3058471679688	1234.401245117188	248.9925842285156	701.610595703125	1491.034912109375	168.1275329589844	676.295166015625	1393.951171875	12.76524448394775	790.8424682617188	1359.94140625	242.8503570556641	597.0897216796875	1453.616333007812	209.4894409179688	525.8707885742188	1449.371948242188	130.2647399902344	452.1454467773438	1336.202758789062	183.8931579589844	418.9537658691406	1126.990966796875	195.5007629394531	475.5232849121094	1114.47900390625	263.35595703125	482.017333984375	904.4586181640625	86.44624328613281	402.7677917480469	884.5440673828125	110.2323760986328	407.7597961425781	1021.654541015625	168.3345031738281	476.4706726074219	710.49169921875	70.96556854248047	407.4878540039062	798.318603515625	86.25478363037109	461.8371276855469	805.44775390625	45.27372360229492	859.2750854492188	1445.9228515625	84.67448425292969	929.3611450195312	1382.920166015625	97.38511657714844	986.5361938476562	1107.376953125	130.3540954589844	903.3135986328125	1097.705200195312	175.8411560058594	940.0259399414062	886.1033935546875	7.843441486358643	1009.692932128906	876.5595092773438	54.03597640991211	999.209228515625	1038.4658203125	105.530029296875	944.8243408203125	692.7284545898438	-9.561023712158203	958.0787353515625	767.1221923828125	-32.84700393676758	1012.876708984375	769.7572631835938	14.82889366149902	749.499755859375	1648.732543945312	79.29666900634766	589.3018798828125	1654.263549804688	-82.40233612060547	683.9419555664062	1650.815185546875	-115.9645919799805	609.0342407226562	1650.125122070312	81.59238433837891	518.794189453125	960.6438598632812	174.9644012451172	883.633544921875	976.5096435546875	124.6341934204102	830.28662109375	1017.644592285156	37.61440658569336	551.073974609375	1000.176086425781	66.14768981933594	598.90966796875	481.4194641113281	183.5996246337891	558.2119750976562	622.5636596679688	169.3585968017578	655.4019165039062	36.5507698059082	372.4244995117188	616.4063110351562	269.6558837890625	282.4166564941406	760.8624267578125	36.10970687866211	176.6804962158203	782.5549926757812	37.92136383056641	253.5656585693359	666.5350341796875	30.22213554382324	244.1642913818359	691.6856689453125	58.93226623535156	442.3120727539062	828.1744384765625	525.1045532226562	-72.943603515625	880.6361694335938	773.6016845703125	13.34457015991211	835.7774658203125	25.56249237060547	-113.347541809082	809.775634765625	408.5771789550781	-110.0448150634766	712.530517578125	70.46204376220703	-277.0797729492188	694.4187622070312	57.77208709716797	-209.9210052490234	809.25	34.08188629150391	-221.7687835693359	810.6438598632812	20.91580581665039	-32.05756378173828	
324	3.23	796.2151489257812	1013.443237304688	229.9806365966797	676.4822998046875	1022.67919921875	245.0548553466797	719.4658203125	1106.794067382812	243.1628112792969	672.510009765625	1274.56982421875	-11.20060920715332	724.3733520507812	1233.973266601562	241.3828277587891	704.316162109375	1490.695556640625	160.7859802246094	676.4149169921875	1393.754150390625	5.734861850738525	794.0296020507812	1359.331176757812	234.3007049560547	600.316162109375	1453.586791992188	203.6632995605469	527.916748046875	1449.6103515625	125.6629409790039	454.9864807128906	1336.744262695312	181.1302795410156	421.2311096191406	1127.748657226562	194.0633392333984	478.6785888671875	1115.7568359375	261.4207763671875	482.02978515625	903.127685546875	87.73848724365234	402.8585815429688	884.1591796875	112.5281677246094	409.2384338378906	1022.043823242188	168.6481475830078	475.4330444335938	709.0999145507812	76.34895324707031	406.8082275390625	797.5029296875	90.04310607910156	460.9989929199219	803.4876708984375	48.59846496582031	860.669921875	1445.044799804688	75.21246337890625	930.7305908203125	1381.8408203125	87.04032897949219	987.4847412109375	1106.179321289062	119.7050323486328	904.7346801757812	1096.835571289062	166.1594085693359	939.2225341796875	884.6409301757812	-1.521391630172729	1009.274658203125	875.0375366210938	44.01814651489258	999.683837890625	1037.1865234375	94.97227478027344	943.2179565429688	691.0958251953125	-18.2576904296875	956.3890991210938	765.4028930664062	-41.77550506591797	1011.760131835938	768.0753784179688	5.202099800109863	751.0126342773438	1648.431884765625	71.61116027832031	589.37744140625	1654.078979492188	-88.64201354980469	683.7152099609375	1650.466918945312	-123.0309448242188	610.5399169921875	1650.02001953125	75.25125122070312	520.0804443359375	960.2567138671875	169.4934692382812	884.319580078125	976.2026977539062	114.8309860229492	829.6298828125	1016.679077148438	28.8490161895752	551.1346435546875	999.8011474609375	60.27956008911133	599.104736328125	481.0436706542969	178.9208221435547	558.5728149414062	622.2120361328125	164.5051727294922	655.56494140625	37.57022094726562	372.1375122070312	616.4111328125	270.1870422363281	279.8034973144531	760.8610229492188	35.98312377929688	176.4857177734375	782.4349365234375	38.1856803894043	253.2807922363281	666.6256103515625	30.24246788024902	244.1003875732422	691.999755859375	60.86061859130859	441.8783264160156	824.4110107421875	524.8558959960938	-81.48413848876953	878.5223388671875	773.0902099609375	3.371856927871704	834.8063354492188	25.70211410522461	-114.5474090576172	805.9122924804688	407.5118408203125	-117.1086044311523	707.9031372070312	64.83747100830078	-278.0245361328125	691.0736694335938	53.28816223144531	-210.2899780273438	806.67578125	32.66452407836914	-222.9125061035156	810.4727783203125	21.66135787963867	-32.87158584594727	
325	3.24	798.2258911132812	1013.4853515625	221.3219757080078	678.4974975585938	1022.566955566406	237.6324310302734	721.7440185546875	1106.462158203125	235.3216552734375	672.0137939453125	1274.55322265625	-18.30104064941406	727.322265625	1233.689208984375	233.7483062744141	707.028564453125	1490.484130859375	153.3425140380859	676.530029296875	1393.716918945312	-1.374191641807556	797.1686401367188	1358.846313476562	225.6439361572266	603.5719604492188	1453.689575195312	197.7187957763672	530.009765625	1450.030395507812	120.9831924438477	457.8660888671875	1337.457641601562	178.2429351806641	423.7055358886719	1128.698120117188	192.5887298583984	482.0853576660156	1117.188110351562	259.2816467285156	482.0175170898438	902.0293579101562	88.89916229248047	403.0191955566406	883.9873046875	114.8884658813477	410.82421875	1022.631225585938	168.90087890625	474.5549011230469	708.07275390625	81.55283355712891	406.2216796875	796.92919921875	93.87864685058594	460.11279296875	801.819091796875	51.81941604614258	862.0281372070312	1444.270385742188	65.66535949707031	932.0296020507812	1380.851684570312	76.59374237060547	988.325439453125	1105.064453125	108.8878936767578	906.0659790039062	1096.055541992188	156.3340911865234	938.3150024414062	883.2181396484375	-10.92855644226074	1008.793334960938	873.613525390625	33.88583374023438	1000.048217773438	1036.00048828125	84.25672912597656	941.6279907226562	689.4989624023438	-26.88647842407227	954.66943359375	763.7258911132812	-50.74246978759766	1010.611022949219	766.4774169921875	-4.488295555114746	752.5374145507812	1648.268432617188	63.85182189941406	589.4348754882812	1654.064086914062	-94.90107727050781	683.449951171875	1650.3017578125	-130.1356201171875	612.0653686523438	1650.027099609375	68.88654327392578	521.262939453125	959.98486328125	163.7424011230469	884.8974609375	976.1760864257812	105.1017608642578	828.97314453125	1015.928283691406	20.11477661132812	551.1740112304688	999.4771118164062	54.23636627197266	599.3739624023438	480.7175903320312	174.0483093261719	558.9490356445312	621.8836669921875	159.4328918457031	655.879150390625	38.77421569824219	371.8605041503906	616.4356079101562	270.8335571289062	277.0764465332031	760.8465576171875	35.85701370239258	176.2540283203125	782.35546875	38.51856231689453	252.9221954345703	666.7574462890625	30.29840850830078	244.0283966064453	692.459716796875	63.04144287109375	441.3916015625	820.6820068359375	524.9181518554688	-90.11175537109375	876.3480224609375	772.9022216796875	-6.594121932983398	834.2885131835938	25.9879322052002	-115.2986831665039	802.238525390625	406.6921081542969	-124.1057815551758	704.539794921875	59.6389045715332	-278.9737854003906	688.8084716796875	49.34183502197266	-210.7230834960938	805.2229614257812	31.58348083496094	-223.6478576660156	810.5055541992188	22.42401695251465	-33.38756942749023	
326	3.25	799.9827880859375	1013.694580078125	212.6544189453125	680.2951049804688	1022.552185058594	230.1455078125	723.8165893554688	1106.294677734375	227.4410400390625	671.5029907226562	1274.689819335938	-25.46705436706543	730.1317138671875	1233.564575195312	226.1003265380859	709.7281494140625	1490.414794921875	145.8029479980469	676.653076171875	1393.842529296875	-8.547179222106934	800.2552490234375	1358.497314453125	216.8932189941406	606.8375244140625	1453.939208984375	191.6479949951172	532.1259155273438	1450.637084960938	116.1917266845703	460.7689514160156	1338.351318359375	175.1864318847656	426.3960876464844	1129.854858398438	191.0978088378906	485.7794494628906	1118.780883789062	256.9216003417969	481.9746704101562	901.1981201171875	89.91745758056641	403.25341796875	884.0509643554688	117.3135986328125	412.5332946777344	1023.432922363281	169.087158203125	473.8079528808594	707.4095458984375	86.51482391357422	405.7245483398438	796.6212768554688	97.75860595703125	459.15380859375	800.4668579101562	54.91722869873047	863.343994140625	1443.6201171875	56.05324554443359	933.25341796875	1379.976196289062	66.06610870361328	989.0462646484375	1104.053466796875	97.90581512451172	907.2969970703125	1095.383911132812	146.3692321777344	937.2822875976562	881.85107421875	-20.37813186645508	1008.245422363281	872.3140869140625	23.62619972229004	1000.292358398438	1034.93017578125	73.38228607177734	940.0648803710938	687.9612426757812	-35.44613647460938	952.901123046875	762.107421875	-59.74069976806641	1009.43701171875	764.9932861328125	-14.25019454956055	754.076904296875	1648.248046875	56.01598739624023	589.4656982421875	1654.218994140625	-101.1759567260742	683.137939453125	1650.321411132812	-137.2808685302734	613.620849609375	1650.155517578125	62.49537658691406	522.3278198242188	959.8024291992188	157.7396087646484	885.349365234375	976.4249267578125	95.44792938232422	828.3663330078125	1015.488220214844	11.32596015930176	551.1685791015625	999.2268676757812	48.04751968383789	599.7067260742188	480.4406127929688	168.9395141601562	559.3271484375	621.5925903320312	154.1319122314453	656.3772583007812	40.19694519042969	371.591552734375	616.4730834960938	271.6257934570312	274.2126159667969	760.7969970703125	35.73698043823242	175.9648132324219	782.3232421875	38.93346786499023	252.4622955322266	666.936279296875	30.39051055908203	243.9456024169922	693.1137084960938	65.52645111083984	440.8246765136719	817.1356811523438	525.1970825195312	-98.70760345458984	874.1507568359375	773.061279296875	-16.51929473876953	834.0948486328125	26.36229515075684	-115.7993545532227	798.8618774414062	406.0722045898438	-130.9599914550781	702.2752075195312	55.03396224975586	-280.0201416015625	687.4625244140625	46.08749771118164	-211.3151092529297	804.6672973632812	30.77831840515137	-224.162353515625	810.6516723632812	23.18035507202148	-33.77503204345703	
